<?xml version="1.0" standalone="no"?>
<!DOCTYPE svg PUBLIC "-//W3C//DTD SVG 20010904//EN"
 "http://www.w3.org/TR/2001/REC-SVG-20010904/DTD/svg10.dtd">
<svg version="1.0" xmlns="http://www.w3.org/2000/svg"
 width="1973.000000pt" height="1973.000000pt" viewBox="0 0 1973.000000 1973.000000"
 preserveAspectRatio="xMidYMid meet">
<metadata>
Created by potrace 1.14, written by Peter Selinger 2001-2017
</metadata>
<g transform="translate(0.000000,1973.000000) scale(0.100000,-0.100000)"
fill="#000000" stroke="none">
<path d="M14040 17231 c-243 -44 -507 -165 -698 -319 l-42 -35 -73 26 c-269
94 -529 117 -789 72 -17 -3 -34 -8 -38 -10 -3 -2 -17 -6 -31 -8 -43 -9 -153
-49 -214 -80 -234 -117 -449 -344 -584 -617 -23 -47 -45 -88 -49 -91 -4 -4
-29 -10 -57 -13 -120 -15 -160 -23 -245 -53 -340 -118 -547 -379 -599 -756 -6
-43 -11 -104 -11 -135 0 -50 -4 -62 -33 -94 -24 -27 -42 -38 -72 -42 -50 -7
-220 -43 -260 -56 -16 -5 -41 -11 -55 -14 -108 -20 -448 -150 -642 -246 l-137
-67 -48 31 c-319 206 -725 396 -1018 476 -16 5 -55 15 -85 23 -45 13 -137 33
-230 52 -37 7 -133 20 -235 32 -83 9 -415 9 -500 0 -138 -14 -162 -18 -285
-43 -427 -86 -860 -289 -1235 -578 -199 -154 -497 -442 -646 -626 -83 -101
-201 -257 -217 -285 -7 -14 -41 -20 -162 -30 -36 -3 -76 -7 -90 -10 -14 -2
-47 -6 -74 -9 -83 -10 -212 -33 -397 -71 -49 -10 -262 -70 -339 -96 -331 -108
-669 -288 -895 -473 -94 -77 -120 -101 -205 -186 -151 -150 -277 -313 -372
-478 -38 -67 -88 -157 -94 -172 -4 -8 -17 -37 -29 -65 -83 -182 -152 -405
-189 -605 -39 -217 -48 -310 -56 -582 0 -10 -28 -36 -62 -59 -61 -41 -207
-151 -258 -195 -106 -91 -148 -130 -239 -223 -252 -258 -455 -559 -590 -875
-83 -192 -156 -455 -176 -631 -4 -33 -9 -63 -11 -66 -5 -9 -17 -233 -17 -324
0 -89 11 -274 18 -320 13 -78 15 -93 20 -130 3 -22 10 -63 16 -91 5 -28 12
-62 14 -76 12 -64 69 -273 102 -368 159 -469 383 -842 684 -1140 59 -58 129
-123 156 -145 l49 -39 -40 -39 c-23 -21 -99 -94 -169 -160 -133 -126 -204
-194 -342 -325 -222 -212 -424 -403 -455 -432 -36 -34 -272 -257 -371 -352
-30 -29 -119 -114 -197 -188 l-142 -134 442 -438 443 -438 48 53 c27 28 70 75
95 102 26 28 94 102 152 164 58 63 116 126 130 141 14 14 66 70 115 124 50 54
104 112 120 130 17 18 73 79 125 135 52 57 109 118 125 136 17 17 71 76 120
130 91 98 108 116 219 236 33 36 104 112 156 169 52 57 127 138 165 180 39 41
98 104 130 139 33 36 85 91 115 123 l55 58 110 -19 c143 -26 336 -45 443 -45
29 0 43 -10 95 -64 69 -73 200 -200 264 -256 l42 -38 -37 -52 c-20 -29 -76
-109 -124 -177 -48 -68 -106 -151 -129 -184 -23 -33 -72 -103 -109 -155 -110
-157 -881 -1257 -1066 -1520 l-171 -244 43 -31 c24 -16 86 -57 136 -90 103
-66 321 -208 557 -363 153 -100 155 -101 170 -79 14 19 360 591 401 662 10 17
36 59 59 95 22 36 45 74 51 85 5 11 20 36 32 56 13 20 47 77 76 125 96 163
451 749 471 779 11 17 26 41 33 55 31 58 103 175 110 178 5 2 8 7 8 12 0 8
225 387 240 403 4 5 52 -6 106 -23 55 -18 115 -36 134 -40 19 -4 67 -15 105
-23 39 -9 90 -18 115 -22 25 -3 52 -8 60 -10 91 -24 547 -24 690 -1 14 3 48 7
75 11 28 3 68 10 90 15 22 5 52 11 68 14 63 13 79 17 168 40 142 37 300 92
439 153 69 30 137 59 151 65 22 9 42 5 125 -27 54 -21 103 -42 108 -47 6 -4
20 -8 32 -8 13 0 26 -4 29 -10 3 -5 15 -10 26 -10 10 0 27 -4 37 -10 36 -21
365 -107 482 -126 14 -2 34 -6 45 -9 11 -2 49 -7 85 -11 36 -3 68 -8 71 -10
13 -8 207 -18 359 -18 204 0 307 8 495 40 203 34 455 116 650 211 l79 38 74
-48 c232 -153 525 -254 827 -284 94 -9 361 -9 460 1 76 7 231 30 285 41 14 3
37 7 51 9 14 2 89 21 165 41 256 67 509 160 773 286 79 38 147 69 150 69 3 0
20 -12 36 -28 17 -15 84 -74 150 -132 66 -58 138 -121 160 -141 22 -20 87 -78
145 -129 58 -50 132 -116 165 -145 33 -30 71 -63 85 -75 14 -12 41 -36 60 -53
19 -18 107 -95 195 -172 88 -77 162 -142 165 -145 3 -3 41 -37 85 -75 44 -39
85 -74 91 -80 6 -5 44 -39 84 -75 41 -36 97 -85 125 -110 28 -25 84 -74 124
-110 41 -36 79 -70 85 -75 6 -6 85 -75 176 -155 91 -80 167 -147 170 -150 3
-3 26 -24 53 -48 l47 -43 47 58 c92 114 128 158 133 163 3 3 46 55 95 115 49
61 114 139 144 175 29 36 70 85 90 109 20 25 50 61 66 80 17 20 59 72 95 116
35 44 71 88 79 97 37 39 43 50 35 57 -5 5 -139 109 -299 232 -312 239 -390
300 -476 366 -29 24 -142 110 -249 193 -107 83 -248 192 -313 242 l-119 92 59
19 c263 82 415 146 566 235 l89 52 111 -92 c62 -51 119 -99 128 -107 8 -9 30
-27 48 -41 40 -31 67 -54 106 -88 17 -15 68 -58 115 -97 47 -38 90 -74 96 -80
6 -5 31 -26 55 -46 89 -73 665 -553 700 -583 20 -17 44 -38 55 -46 11 -8 46
-37 79 -65 33 -27 70 -59 84 -70 13 -11 42 -36 64 -55 l39 -34 19 24 c18 23
48 62 166 215 22 28 128 164 237 304 109 140 200 259 202 266 4 8 -304 239
-554 416 -46 32 -200 143 -497 359 -243 176 -305 221 -345 248 -14 9 -27 19
-30 22 -3 3 -57 43 -120 88 -155 109 -144 96 -119 140 l22 38 126 -42 c308
-104 560 -152 871 -169 252 -14 683 -19 835 -10 33 2 110 6 170 10 61 3 130 8
155 11 62 6 290 33 320 38 14 3 41 7 60 10 412 65 821 206 1115 386 65 39 203
136 215 149 3 3 27 24 54 46 53 42 170 157 225 221 127 147 330 470 421 670
65 141 130 385 155 579 4 28 8 61 10 75 14 99 20 215 20 410 0 193 -10 413
-20 430 -1 3 -6 30 -9 61 -4 31 -9 67 -12 80 -2 13 -7 40 -10 59 -11 70 -73
317 -99 395 -139 413 -366 758 -653 994 -57 46 -254 181 -266 181 -2 0 -40 21
-85 46 -86 48 -87 50 -71 119 35 151 35 530 0 690 -5 22 -11 54 -14 71 -17 94
-91 309 -152 439 -56 120 -197 357 -254 428 -5 7 -38 48 -72 92 -145 185 -347
391 -551 559 -47 39 -47 39 -30 65 39 60 102 192 131 277 43 128 61 208 82
369 8 65 5 291 -5 340 -7 38 -28 138 -30 145 -1 3 -5 19 -10 35 -43 163 -167
373 -303 512 -110 112 -143 140 -269 223 l-111 73 -16 86 c-9 47 -19 97 -22
111 -20 99 -104 286 -179 401 -61 92 -218 249 -310 310 -147 97 -347 179 -500
205 -16 3 -55 9 -85 14 -71 13 -206 24 -293 24 l-68 1 -107 105 c-253 250
-518 399 -827 465 -115 25 -343 28 -465 6z m-7441 -11898 c-74 -142 -79 -144
-79 -48 l1 80 62 31 c34 17 63 32 65 33 1 0 -20 -43 -49 -96z"/>
</g>
</svg>
